<mxfile host="app.diagrams.net" modified="2024-05-04T02:23:55.058Z" agent="Mozilla/5.0 (Windows NT 10.0; Win64; x64) AppleWebKit/537.36 (KHTML, like Gecko) Chrome/124.0.0.0 Safari/537.36" etag="BHdx7loWJqFr3-4JNZHt" version="24.3.1" type="device">
  <diagram id="C5RBs43oDa-KdzZeNtuy" name="Page-1">
    <mxGraphModel dx="1728" dy="915" grid="1" gridSize="10" guides="1" tooltips="1" connect="1" arrows="1" fold="1" page="1" pageScale="1" pageWidth="1169" pageHeight="827" math="0" shadow="0">
      <root>
        <mxCell id="WIyWlLk6GJQsqaUBKTNV-0" />
        <mxCell id="WIyWlLk6GJQsqaUBKTNV-1" parent="WIyWlLk6GJQsqaUBKTNV-0" />
        <mxCell id="IvXpY0H28sJlYQCy-DXd-7" style="edgeStyle=orthogonalEdgeStyle;rounded=0;orthogonalLoop=1;jettySize=auto;html=1;exitX=1;exitY=0.5;exitDx=0;exitDy=0;entryX=0.5;entryY=1;entryDx=0;entryDy=0;" edge="1" parent="WIyWlLk6GJQsqaUBKTNV-1" source="IvXpY0H28sJlYQCy-DXd-3" target="IvXpY0H28sJlYQCy-DXd-6">
          <mxGeometry relative="1" as="geometry" />
        </mxCell>
        <mxCell id="IvXpY0H28sJlYQCy-DXd-3" value="Colaborador" style="rounded=0;whiteSpace=wrap;html=1;" vertex="1" parent="WIyWlLk6GJQsqaUBKTNV-1">
          <mxGeometry x="160" y="374" width="145" height="80" as="geometry" />
        </mxCell>
        <mxCell id="IvXpY0H28sJlYQCy-DXd-4" value="Empresa" style="rounded=0;whiteSpace=wrap;html=1;" vertex="1" parent="WIyWlLk6GJQsqaUBKTNV-1">
          <mxGeometry x="520" y="140" width="145" height="80" as="geometry" />
        </mxCell>
        <mxCell id="IvXpY0H28sJlYQCy-DXd-5" value="" style="group" vertex="1" connectable="0" parent="WIyWlLk6GJQsqaUBKTNV-1">
          <mxGeometry x="860" y="374" width="145" height="80" as="geometry" />
        </mxCell>
        <mxCell id="IvXpY0H28sJlYQCy-DXd-11" value="" style="group" vertex="1" connectable="0" parent="IvXpY0H28sJlYQCy-DXd-5">
          <mxGeometry width="145" height="80" as="geometry" />
        </mxCell>
        <mxCell id="IvXpY0H28sJlYQCy-DXd-13" value="" style="group" vertex="1" connectable="0" parent="IvXpY0H28sJlYQCy-DXd-11">
          <mxGeometry width="145" height="80" as="geometry" />
        </mxCell>
        <mxCell id="IvXpY0H28sJlYQCy-DXd-2" value="" style="rounded=0;whiteSpace=wrap;html=1;" vertex="1" parent="IvXpY0H28sJlYQCy-DXd-13">
          <mxGeometry width="145" height="80" as="geometry" />
        </mxCell>
        <mxCell id="IvXpY0H28sJlYQCy-DXd-1" value="Tecnologia" style="rounded=0;whiteSpace=wrap;html=1;" vertex="1" parent="IvXpY0H28sJlYQCy-DXd-13">
          <mxGeometry x="12.5" y="10" width="120" height="60" as="geometry" />
        </mxCell>
        <mxCell id="IvXpY0H28sJlYQCy-DXd-8" style="edgeStyle=orthogonalEdgeStyle;rounded=0;orthogonalLoop=1;jettySize=auto;html=1;exitX=0.5;exitY=0;exitDx=0;exitDy=0;entryX=0;entryY=0.5;entryDx=0;entryDy=0;" edge="1" parent="WIyWlLk6GJQsqaUBKTNV-1" source="IvXpY0H28sJlYQCy-DXd-6" target="IvXpY0H28sJlYQCy-DXd-4">
          <mxGeometry relative="1" as="geometry" />
        </mxCell>
        <mxCell id="IvXpY0H28sJlYQCy-DXd-6" value="Trabalha" style="rhombus;whiteSpace=wrap;html=1;" vertex="1" parent="WIyWlLk6GJQsqaUBKTNV-1">
          <mxGeometry x="320" y="240" width="120" height="80" as="geometry" />
        </mxCell>
        <mxCell id="IvXpY0H28sJlYQCy-DXd-14" style="edgeStyle=orthogonalEdgeStyle;rounded=0;orthogonalLoop=1;jettySize=auto;html=1;entryX=1;entryY=0.5;entryDx=0;entryDy=0;exitX=0.5;exitY=0;exitDx=0;exitDy=0;" edge="1" parent="WIyWlLk6GJQsqaUBKTNV-1" source="IvXpY0H28sJlYQCy-DXd-9" target="IvXpY0H28sJlYQCy-DXd-4">
          <mxGeometry relative="1" as="geometry" />
        </mxCell>
        <mxCell id="IvXpY0H28sJlYQCy-DXd-9" value="Usa" style="rhombus;whiteSpace=wrap;html=1;" vertex="1" parent="WIyWlLk6GJQsqaUBKTNV-1">
          <mxGeometry x="740" y="240" width="120" height="80" as="geometry" />
        </mxCell>
        <mxCell id="IvXpY0H28sJlYQCy-DXd-12" style="edgeStyle=orthogonalEdgeStyle;rounded=0;orthogonalLoop=1;jettySize=auto;html=1;exitX=0;exitY=0.5;exitDx=0;exitDy=0;" edge="1" parent="WIyWlLk6GJQsqaUBKTNV-1" source="IvXpY0H28sJlYQCy-DXd-2" target="IvXpY0H28sJlYQCy-DXd-9">
          <mxGeometry relative="1" as="geometry" />
        </mxCell>
        <mxCell id="IvXpY0H28sJlYQCy-DXd-16" value="(1,n)" style="text;html=1;align=center;verticalAlign=middle;whiteSpace=wrap;rounded=0;" vertex="1" parent="WIyWlLk6GJQsqaUBKTNV-1">
          <mxGeometry x="830" y="394" width="25" height="20" as="geometry" />
        </mxCell>
        <mxCell id="IvXpY0H28sJlYQCy-DXd-17" value="(0,n)" style="text;html=1;align=center;verticalAlign=middle;whiteSpace=wrap;rounded=0;" vertex="1" parent="WIyWlLk6GJQsqaUBKTNV-1">
          <mxGeometry x="680" y="160" width="25" height="20" as="geometry" />
        </mxCell>
        <mxCell id="IvXpY0H28sJlYQCy-DXd-18" value="(1,1)" style="text;html=1;align=center;verticalAlign=middle;whiteSpace=wrap;rounded=0;" vertex="1" parent="WIyWlLk6GJQsqaUBKTNV-1">
          <mxGeometry x="480" y="160" width="25" height="20" as="geometry" />
        </mxCell>
        <mxCell id="IvXpY0H28sJlYQCy-DXd-19" value="(1,n)" style="text;html=1;align=center;verticalAlign=middle;whiteSpace=wrap;rounded=0;" vertex="1" parent="WIyWlLk6GJQsqaUBKTNV-1">
          <mxGeometry x="310" y="394" width="25" height="20" as="geometry" />
        </mxCell>
      </root>
    </mxGraphModel>
  </diagram>
</mxfile>
